%TF.GenerationSoftware,KiCad,Pcbnew,(6.0.2-0)*%
%TF.CreationDate,2022-06-16T00:13:51-05:00*%
%TF.ProjectId,stein gate pcb,73746569-6e20-4676-9174-65207063622e,rev?*%
%TF.SameCoordinates,Original*%
%TF.FileFunction,Paste,Top*%
%TF.FilePolarity,Positive*%
%FSLAX46Y46*%
G04 Gerber Fmt 4.6, Leading zero omitted, Abs format (unit mm)*
G04 Created by KiCad (PCBNEW (6.0.2-0)) date 2022-06-16 00:13:51*
%MOMM*%
%LPD*%
G01*
G04 APERTURE LIST*
%ADD10R,1.500000X0.520000*%
%ADD11R,0.520000X1.500000*%
G04 APERTURE END LIST*
D10*
%TO.C,U1*%
X112730000Y-113220000D03*
X112730000Y-112420000D03*
X112730000Y-111620000D03*
X112730000Y-110820000D03*
X112730000Y-110020000D03*
X112730000Y-109220000D03*
X112730000Y-108420000D03*
X112730000Y-107620000D03*
X112730000Y-106820000D03*
X112730000Y-106020000D03*
X112730000Y-105220000D03*
D11*
X110680000Y-103170000D03*
X109880000Y-103170000D03*
X109080000Y-103170000D03*
X108280000Y-103170000D03*
X107480000Y-103170000D03*
X106680000Y-103170000D03*
X105880000Y-103170000D03*
X105080000Y-103170000D03*
X104280000Y-103170000D03*
X103480000Y-103170000D03*
X102680000Y-103170000D03*
D10*
X100630000Y-105220000D03*
X100630000Y-106020000D03*
X100630000Y-106820000D03*
X100630000Y-107620000D03*
X100630000Y-108420000D03*
X100630000Y-109220000D03*
X100630000Y-110020000D03*
X100630000Y-110820000D03*
X100630000Y-111620000D03*
X100630000Y-112420000D03*
X100630000Y-113220000D03*
D11*
X102680000Y-115270000D03*
X103480000Y-115270000D03*
X104280000Y-115270000D03*
X105080000Y-115270000D03*
X105880000Y-115270000D03*
X106680000Y-115270000D03*
X107480000Y-115270000D03*
X108280000Y-115270000D03*
X109080000Y-115270000D03*
X109880000Y-115270000D03*
X110680000Y-115270000D03*
%TD*%
D10*
%TO.C,U5*%
X158450000Y-92900000D03*
X158450000Y-92100000D03*
X158450000Y-91300000D03*
X158450000Y-90500000D03*
X158450000Y-89700000D03*
X158450000Y-88900000D03*
X158450000Y-88100000D03*
X158450000Y-87300000D03*
X158450000Y-86500000D03*
X158450000Y-85700000D03*
X158450000Y-84900000D03*
D11*
X156400000Y-82850000D03*
X155600000Y-82850000D03*
X154800000Y-82850000D03*
X154000000Y-82850000D03*
X153200000Y-82850000D03*
X152400000Y-82850000D03*
X151600000Y-82850000D03*
X150800000Y-82850000D03*
X150000000Y-82850000D03*
X149200000Y-82850000D03*
X148400000Y-82850000D03*
D10*
X146350000Y-84900000D03*
X146350000Y-85700000D03*
X146350000Y-86500000D03*
X146350000Y-87300000D03*
X146350000Y-88100000D03*
X146350000Y-88900000D03*
X146350000Y-89700000D03*
X146350000Y-90500000D03*
X146350000Y-91300000D03*
X146350000Y-92100000D03*
X146350000Y-92900000D03*
D11*
X148400000Y-94950000D03*
X149200000Y-94950000D03*
X150000000Y-94950000D03*
X150800000Y-94950000D03*
X151600000Y-94950000D03*
X152400000Y-94950000D03*
X153200000Y-94950000D03*
X154000000Y-94950000D03*
X154800000Y-94950000D03*
X155600000Y-94950000D03*
X156400000Y-94950000D03*
%TD*%
D10*
%TO.C,U3*%
X112730000Y-90360000D03*
X112730000Y-89560000D03*
X112730000Y-88760000D03*
X112730000Y-87960000D03*
X112730000Y-87160000D03*
X112730000Y-86360000D03*
X112730000Y-85560000D03*
X112730000Y-84760000D03*
X112730000Y-83960000D03*
X112730000Y-83160000D03*
X112730000Y-82360000D03*
D11*
X110680000Y-80310000D03*
X109880000Y-80310000D03*
X109080000Y-80310000D03*
X108280000Y-80310000D03*
X107480000Y-80310000D03*
X106680000Y-80310000D03*
X105880000Y-80310000D03*
X105080000Y-80310000D03*
X104280000Y-80310000D03*
X103480000Y-80310000D03*
X102680000Y-80310000D03*
D10*
X100630000Y-82360000D03*
X100630000Y-83160000D03*
X100630000Y-83960000D03*
X100630000Y-84760000D03*
X100630000Y-85560000D03*
X100630000Y-86360000D03*
X100630000Y-87160000D03*
X100630000Y-87960000D03*
X100630000Y-88760000D03*
X100630000Y-89560000D03*
X100630000Y-90360000D03*
D11*
X102680000Y-92410000D03*
X103480000Y-92410000D03*
X104280000Y-92410000D03*
X105080000Y-92410000D03*
X105880000Y-92410000D03*
X106680000Y-92410000D03*
X107480000Y-92410000D03*
X108280000Y-92410000D03*
X109080000Y-92410000D03*
X109880000Y-92410000D03*
X110680000Y-92410000D03*
%TD*%
D10*
%TO.C,U4*%
X158450000Y-115760000D03*
X158450000Y-114960000D03*
X158450000Y-114160000D03*
X158450000Y-113360000D03*
X158450000Y-112560000D03*
X158450000Y-111760000D03*
X158450000Y-110960000D03*
X158450000Y-110160000D03*
X158450000Y-109360000D03*
X158450000Y-108560000D03*
X158450000Y-107760000D03*
D11*
X156400000Y-105710000D03*
X155600000Y-105710000D03*
X154800000Y-105710000D03*
X154000000Y-105710000D03*
X153200000Y-105710000D03*
X152400000Y-105710000D03*
X151600000Y-105710000D03*
X150800000Y-105710000D03*
X150000000Y-105710000D03*
X149200000Y-105710000D03*
X148400000Y-105710000D03*
D10*
X146350000Y-107760000D03*
X146350000Y-108560000D03*
X146350000Y-109360000D03*
X146350000Y-110160000D03*
X146350000Y-110960000D03*
X146350000Y-111760000D03*
X146350000Y-112560000D03*
X146350000Y-113360000D03*
X146350000Y-114160000D03*
X146350000Y-114960000D03*
X146350000Y-115760000D03*
D11*
X148400000Y-117810000D03*
X149200000Y-117810000D03*
X150000000Y-117810000D03*
X150800000Y-117810000D03*
X151600000Y-117810000D03*
X152400000Y-117810000D03*
X153200000Y-117810000D03*
X154000000Y-117810000D03*
X154800000Y-117810000D03*
X155600000Y-117810000D03*
X156400000Y-117810000D03*
%TD*%
M02*
