%TF.GenerationSoftware,KiCad,Pcbnew,(6.0.2-0)*%
%TF.CreationDate,2022-06-16T00:13:51-05:00*%
%TF.ProjectId,stein gate pcb,73746569-6e20-4676-9174-65207063622e,rev?*%
%TF.SameCoordinates,Original*%
%TF.FileFunction,Soldermask,Top*%
%TF.FilePolarity,Negative*%
%FSLAX46Y46*%
G04 Gerber Fmt 4.6, Leading zero omitted, Abs format (unit mm)*
G04 Created by KiCad (PCBNEW (6.0.2-0)) date 2022-06-16 00:13:51*
%MOMM*%
%LPD*%
G01*
G04 APERTURE LIST*
%ADD10R,1.350000X1.350000*%
%ADD11O,1.350000X1.350000*%
%ADD12R,1.500000X0.520000*%
%ADD13R,0.520000X1.500000*%
%ADD14R,1.700000X1.700000*%
%ADD15O,1.700000X1.700000*%
%ADD16C,1.700000*%
G04 APERTURE END LIST*
D10*
%TO.C,tube4*%
X166340000Y-83820000D03*
D11*
X168340000Y-83820000D03*
X170340000Y-83820000D03*
X172340000Y-83820000D03*
X174340000Y-83820000D03*
X176340000Y-83820000D03*
X178340000Y-83820000D03*
X180340000Y-83820000D03*
X182340000Y-83820000D03*
X184340000Y-83820000D03*
X186340000Y-83820000D03*
X188340000Y-83820000D03*
%TD*%
D10*
%TO.C,R8*%
X195040000Y-83820000D03*
D11*
X193040000Y-83820000D03*
%TD*%
D10*
%TO.C,R4*%
X165560000Y-93980000D03*
D11*
X167560000Y-93980000D03*
%TD*%
D10*
%TO.C,R5*%
X117700000Y-109220000D03*
D11*
X117700000Y-111220000D03*
%TD*%
D12*
%TO.C,U1*%
X112730000Y-113220000D03*
X112730000Y-112420000D03*
X112730000Y-111620000D03*
X112730000Y-110820000D03*
X112730000Y-110020000D03*
X112730000Y-109220000D03*
X112730000Y-108420000D03*
X112730000Y-107620000D03*
X112730000Y-106820000D03*
X112730000Y-106020000D03*
X112730000Y-105220000D03*
D13*
X110680000Y-103170000D03*
X109880000Y-103170000D03*
X109080000Y-103170000D03*
X108280000Y-103170000D03*
X107480000Y-103170000D03*
X106680000Y-103170000D03*
X105880000Y-103170000D03*
X105080000Y-103170000D03*
X104280000Y-103170000D03*
X103480000Y-103170000D03*
X102680000Y-103170000D03*
D12*
X100630000Y-105220000D03*
X100630000Y-106020000D03*
X100630000Y-106820000D03*
X100630000Y-107620000D03*
X100630000Y-108420000D03*
X100630000Y-109220000D03*
X100630000Y-110020000D03*
X100630000Y-110820000D03*
X100630000Y-111620000D03*
X100630000Y-112420000D03*
X100630000Y-113220000D03*
D13*
X102680000Y-115270000D03*
X103480000Y-115270000D03*
X104280000Y-115270000D03*
X105080000Y-115270000D03*
X105880000Y-115270000D03*
X106680000Y-115270000D03*
X107480000Y-115270000D03*
X108280000Y-115270000D03*
X109080000Y-115270000D03*
X109880000Y-115270000D03*
X110680000Y-115270000D03*
%TD*%
D10*
%TO.C,R1*%
X104140000Y-76200000D03*
D11*
X106140000Y-76200000D03*
%TD*%
D10*
%TO.C,tube5*%
X139700000Y-114300000D03*
D11*
X137700000Y-114300000D03*
X135700000Y-114300000D03*
X133700000Y-114300000D03*
X131700000Y-114300000D03*
X129700000Y-114300000D03*
X127700000Y-114300000D03*
X125700000Y-114300000D03*
X123700000Y-114300000D03*
X121700000Y-114300000D03*
X119700000Y-114300000D03*
X117700000Y-114300000D03*
%TD*%
D14*
%TO.C,BatteryIn*%
X71120000Y-116840000D03*
%TD*%
%TO.C,BatteryGround*%
X71120000Y-109220000D03*
%TD*%
D10*
%TO.C,R6*%
X165560000Y-116840000D03*
D11*
X167560000Y-116840000D03*
%TD*%
D14*
%TO.C,IR_receiver1*%
X121920000Y-121920000D03*
D15*
X124460000Y-121920000D03*
X127000000Y-121920000D03*
%TD*%
D10*
%TO.C,ground*%
X71120000Y-104140000D03*
%TD*%
%TO.C,170vin1*%
X147320000Y-76200000D03*
%TD*%
%TO.C,R10*%
X195120000Y-106680000D03*
D11*
X193120000Y-106680000D03*
%TD*%
D10*
%TO.C,tube1*%
X139700000Y-91440000D03*
D11*
X137700000Y-91440000D03*
X135700000Y-91440000D03*
X133700000Y-91440000D03*
X131700000Y-91440000D03*
X129700000Y-91440000D03*
X127700000Y-91440000D03*
X125700000Y-91440000D03*
X123700000Y-91440000D03*
X121700000Y-91440000D03*
X119700000Y-91440000D03*
X117700000Y-91440000D03*
%TD*%
D10*
%TO.C,tube7*%
X194340000Y-116840000D03*
D11*
X192340000Y-116840000D03*
X190340000Y-116840000D03*
X188340000Y-116840000D03*
X186340000Y-116840000D03*
X184340000Y-116840000D03*
X182340000Y-116840000D03*
X180340000Y-116840000D03*
X178340000Y-116840000D03*
X176340000Y-116840000D03*
X174340000Y-116840000D03*
X172340000Y-116840000D03*
%TD*%
D10*
%TO.C,R9*%
X139700000Y-99060000D03*
D11*
X139700000Y-101060000D03*
%TD*%
D10*
%TO.C,R3*%
X117700000Y-86360000D03*
D11*
X117700000Y-88360000D03*
%TD*%
D10*
%TO.C,tube3*%
X194340000Y-93980000D03*
D11*
X192340000Y-93980000D03*
X190340000Y-93980000D03*
X188340000Y-93980000D03*
X186340000Y-93980000D03*
X184340000Y-93980000D03*
X182340000Y-93980000D03*
X180340000Y-93980000D03*
X178340000Y-93980000D03*
X176340000Y-93980000D03*
X174340000Y-93980000D03*
X172340000Y-93980000D03*
%TD*%
D10*
%TO.C,tube6*%
X117700000Y-104140000D03*
D11*
X119700000Y-104140000D03*
X121700000Y-104140000D03*
X123700000Y-104140000D03*
X125700000Y-104140000D03*
X127700000Y-104140000D03*
X129700000Y-104140000D03*
X131700000Y-104140000D03*
X133700000Y-104140000D03*
X135700000Y-104140000D03*
X137700000Y-104140000D03*
X139700000Y-104140000D03*
%TD*%
D14*
%TO.C,RTCModule1*%
X111760000Y-121920000D03*
D15*
X109220000Y-121920000D03*
X106680000Y-121920000D03*
X104140000Y-121920000D03*
X101600000Y-121920000D03*
X99060000Y-121920000D03*
%TD*%
D10*
%TO.C,To170V*%
X71120000Y-99060000D03*
%TD*%
%TO.C,tube8*%
X166340000Y-106680000D03*
D11*
X168340000Y-106680000D03*
X170340000Y-106680000D03*
X172340000Y-106680000D03*
X174340000Y-106680000D03*
X176340000Y-106680000D03*
X178340000Y-106680000D03*
X180340000Y-106680000D03*
X182340000Y-106680000D03*
X184340000Y-106680000D03*
X186340000Y-106680000D03*
X188340000Y-106680000D03*
%TD*%
D10*
%TO.C,tube2*%
X117700000Y-81280000D03*
D11*
X119700000Y-81280000D03*
X121700000Y-81280000D03*
X123700000Y-81280000D03*
X125700000Y-81280000D03*
X127700000Y-81280000D03*
X129700000Y-81280000D03*
X131700000Y-81280000D03*
X133700000Y-81280000D03*
X135700000Y-81280000D03*
X137700000Y-81280000D03*
X139700000Y-81280000D03*
%TD*%
D10*
%TO.C,170vin2*%
X101600000Y-76200000D03*
%TD*%
%TO.C,R7*%
X139700000Y-76200000D03*
D11*
X139700000Y-78200000D03*
%TD*%
D12*
%TO.C,U5*%
X158450000Y-92900000D03*
X158450000Y-92100000D03*
X158450000Y-91300000D03*
X158450000Y-90500000D03*
X158450000Y-89700000D03*
X158450000Y-88900000D03*
X158450000Y-88100000D03*
X158450000Y-87300000D03*
X158450000Y-86500000D03*
X158450000Y-85700000D03*
X158450000Y-84900000D03*
D13*
X156400000Y-82850000D03*
X155600000Y-82850000D03*
X154800000Y-82850000D03*
X154000000Y-82850000D03*
X153200000Y-82850000D03*
X152400000Y-82850000D03*
X151600000Y-82850000D03*
X150800000Y-82850000D03*
X150000000Y-82850000D03*
X149200000Y-82850000D03*
X148400000Y-82850000D03*
D12*
X146350000Y-84900000D03*
X146350000Y-85700000D03*
X146350000Y-86500000D03*
X146350000Y-87300000D03*
X146350000Y-88100000D03*
X146350000Y-88900000D03*
X146350000Y-89700000D03*
X146350000Y-90500000D03*
X146350000Y-91300000D03*
X146350000Y-92100000D03*
X146350000Y-92900000D03*
D13*
X148400000Y-94950000D03*
X149200000Y-94950000D03*
X150000000Y-94950000D03*
X150800000Y-94950000D03*
X151600000Y-94950000D03*
X152400000Y-94950000D03*
X153200000Y-94950000D03*
X154000000Y-94950000D03*
X154800000Y-94950000D03*
X155600000Y-94950000D03*
X156400000Y-94950000D03*
%TD*%
D10*
%TO.C,R2*%
X149860000Y-76200000D03*
D11*
X151860000Y-76200000D03*
%TD*%
D16*
%TO.C,U2*%
X94018500Y-103180000D03*
X94018500Y-100640000D03*
X78762500Y-80320000D03*
X94018500Y-98100000D03*
X94018500Y-95560000D03*
X78762500Y-105720000D03*
X94018500Y-93020000D03*
X94018500Y-90480000D03*
X94018500Y-87940000D03*
X94018500Y-85400000D03*
X94018500Y-82860000D03*
X94018500Y-80320000D03*
X94018500Y-77780000D03*
X78762500Y-77780000D03*
X78762500Y-85400000D03*
X78762500Y-87940000D03*
X78762500Y-90480000D03*
X78762500Y-93020000D03*
X78762500Y-95560000D03*
X78762500Y-98100000D03*
X78762500Y-82860000D03*
X94018500Y-105720000D03*
X78762500Y-110800000D03*
X78762500Y-115880000D03*
D14*
X94018500Y-118420000D03*
D16*
X78762500Y-103180000D03*
X78762500Y-100640000D03*
X94018500Y-108260000D03*
X78762500Y-108260000D03*
X94018500Y-110800000D03*
X78762500Y-118420000D03*
X94018500Y-115880000D03*
X94018500Y-113340000D03*
X78762500Y-113340000D03*
%TD*%
D12*
%TO.C,U3*%
X112730000Y-90360000D03*
X112730000Y-89560000D03*
X112730000Y-88760000D03*
X112730000Y-87960000D03*
X112730000Y-87160000D03*
X112730000Y-86360000D03*
X112730000Y-85560000D03*
X112730000Y-84760000D03*
X112730000Y-83960000D03*
X112730000Y-83160000D03*
X112730000Y-82360000D03*
D13*
X110680000Y-80310000D03*
X109880000Y-80310000D03*
X109080000Y-80310000D03*
X108280000Y-80310000D03*
X107480000Y-80310000D03*
X106680000Y-80310000D03*
X105880000Y-80310000D03*
X105080000Y-80310000D03*
X104280000Y-80310000D03*
X103480000Y-80310000D03*
X102680000Y-80310000D03*
D12*
X100630000Y-82360000D03*
X100630000Y-83160000D03*
X100630000Y-83960000D03*
X100630000Y-84760000D03*
X100630000Y-85560000D03*
X100630000Y-86360000D03*
X100630000Y-87160000D03*
X100630000Y-87960000D03*
X100630000Y-88760000D03*
X100630000Y-89560000D03*
X100630000Y-90360000D03*
D13*
X102680000Y-92410000D03*
X103480000Y-92410000D03*
X104280000Y-92410000D03*
X105080000Y-92410000D03*
X105880000Y-92410000D03*
X106680000Y-92410000D03*
X107480000Y-92410000D03*
X108280000Y-92410000D03*
X109080000Y-92410000D03*
X109880000Y-92410000D03*
X110680000Y-92410000D03*
%TD*%
D12*
%TO.C,U4*%
X158450000Y-115760000D03*
X158450000Y-114960000D03*
X158450000Y-114160000D03*
X158450000Y-113360000D03*
X158450000Y-112560000D03*
X158450000Y-111760000D03*
X158450000Y-110960000D03*
X158450000Y-110160000D03*
X158450000Y-109360000D03*
X158450000Y-108560000D03*
X158450000Y-107760000D03*
D13*
X156400000Y-105710000D03*
X155600000Y-105710000D03*
X154800000Y-105710000D03*
X154000000Y-105710000D03*
X153200000Y-105710000D03*
X152400000Y-105710000D03*
X151600000Y-105710000D03*
X150800000Y-105710000D03*
X150000000Y-105710000D03*
X149200000Y-105710000D03*
X148400000Y-105710000D03*
D12*
X146350000Y-107760000D03*
X146350000Y-108560000D03*
X146350000Y-109360000D03*
X146350000Y-110160000D03*
X146350000Y-110960000D03*
X146350000Y-111760000D03*
X146350000Y-112560000D03*
X146350000Y-113360000D03*
X146350000Y-114160000D03*
X146350000Y-114960000D03*
X146350000Y-115760000D03*
D13*
X148400000Y-117810000D03*
X149200000Y-117810000D03*
X150000000Y-117810000D03*
X150800000Y-117810000D03*
X151600000Y-117810000D03*
X152400000Y-117810000D03*
X153200000Y-117810000D03*
X154000000Y-117810000D03*
X154800000Y-117810000D03*
X155600000Y-117810000D03*
X156400000Y-117810000D03*
%TD*%
M02*
