M48
; DRILL file {KiCad (6.0.2-0)} date 2022 June 16, Thursday 00:15:11
; FORMAT={-:-/ absolute / metric / decimal}
; #@! TF.CreationDate,2022-06-16T00:15:11-05:00
; #@! TF.GenerationSoftware,Kicad,Pcbnew,(6.0.2-0)
; #@! TF.FileFunction,Plated,1,2,PTH
FMAT,2
METRIC
; #@! TA.AperFunction,Plated,PTH,ViaDrill
T1C0.400
; #@! TA.AperFunction,Plated,PTH,ComponentDrill
T2C0.800
; #@! TA.AperFunction,Plated,PTH,ComponentDrill
T3C1.000
%
G90
G05
T1
X81.28Y-114.3
X86.36Y-104.14
X86.36Y-111.76
X88.667Y-106.68
X91.44Y-84.142
X91.44Y-101.6
X91.44Y-101.6
X95.797Y-81.735
X98.201Y-111.623
X99.084Y-110.027
X99.101Y-108.676
X101.6Y-104.245
X101.815Y-91.655
X103.161Y-97.755
X104.14Y-111.76
X109.22Y-83.82
X109.22Y-106.68
X126.714Y-112.074
X127.261Y-109.672
X129.54Y-86.36
X133.08Y-87.36
X134.62Y-96.52
X137.16Y-78.74
X137.16Y-101.6
X139.619Y-89.358
X141.479Y-105.228
X143.449Y-91.905
X143.451Y-110.431
X143.472Y-83.798
X144.136Y-113.337
X144.517Y-89.693
X144.78Y-86.36
X147.32Y-106.68
X147.535Y-93.765
X148.435Y-91.707
X149.143Y-113.727
X149.16Y-111.684
X149.257Y-88.928
X154.94Y-86.36
X154.94Y-109.22
X190.5Y-81.28
X190.5Y-104.14
T2
X71.12Y-99.06
X71.12Y-104.14
X101.6Y-76.2
X104.14Y-76.2
X106.14Y-76.2
X117.7Y-81.28
X117.7Y-86.36
X117.7Y-88.36
X117.7Y-91.44
X117.7Y-104.14
X117.7Y-109.22
X117.7Y-111.22
X117.7Y-114.3
X119.7Y-81.28
X119.7Y-91.44
X119.7Y-104.14
X119.7Y-114.3
X121.7Y-81.28
X121.7Y-91.44
X121.7Y-104.14
X121.7Y-114.3
X123.7Y-81.28
X123.7Y-91.44
X123.7Y-104.14
X123.7Y-114.3
X125.7Y-81.28
X125.7Y-91.44
X125.7Y-104.14
X125.7Y-114.3
X127.7Y-81.28
X127.7Y-91.44
X127.7Y-104.14
X127.7Y-114.3
X129.7Y-81.28
X129.7Y-91.44
X129.7Y-104.14
X129.7Y-114.3
X131.7Y-81.28
X131.7Y-91.44
X131.7Y-104.14
X131.7Y-114.3
X133.7Y-81.28
X133.7Y-91.44
X133.7Y-104.14
X133.7Y-114.3
X135.7Y-81.28
X135.7Y-91.44
X135.7Y-104.14
X135.7Y-114.3
X137.7Y-81.28
X137.7Y-91.44
X137.7Y-104.14
X137.7Y-114.3
X139.7Y-76.2
X139.7Y-78.2
X139.7Y-81.28
X139.7Y-91.44
X139.7Y-99.06
X139.7Y-101.06
X139.7Y-104.14
X139.7Y-114.3
X147.32Y-76.2
X149.86Y-76.2
X151.86Y-76.2
X165.56Y-93.98
X165.56Y-116.84
X166.34Y-83.82
X166.34Y-106.68
X167.56Y-93.98
X167.56Y-116.84
X168.34Y-83.82
X168.34Y-106.68
X170.34Y-83.82
X170.34Y-106.68
X172.34Y-83.82
X172.34Y-93.98
X172.34Y-106.68
X172.34Y-116.84
X174.34Y-83.82
X174.34Y-93.98
X174.34Y-106.68
X174.34Y-116.84
X176.34Y-83.82
X176.34Y-93.98
X176.34Y-106.68
X176.34Y-116.84
X178.34Y-83.82
X178.34Y-93.98
X178.34Y-106.68
X178.34Y-116.84
X180.34Y-83.82
X180.34Y-93.98
X180.34Y-106.68
X180.34Y-116.84
X182.34Y-83.82
X182.34Y-93.98
X182.34Y-106.68
X182.34Y-116.84
X184.34Y-83.82
X184.34Y-93.98
X184.34Y-106.68
X184.34Y-116.84
X186.34Y-83.82
X186.34Y-93.98
X186.34Y-106.68
X186.34Y-116.84
X188.34Y-83.82
X188.34Y-93.98
X188.34Y-106.68
X188.34Y-116.84
X190.34Y-93.98
X190.34Y-116.84
X192.34Y-93.98
X192.34Y-116.84
X193.04Y-83.82
X193.12Y-106.68
X194.34Y-93.98
X194.34Y-116.84
X195.04Y-83.82
X195.12Y-106.68
T3
X71.12Y-109.22
X71.12Y-116.84
X78.763Y-77.78
X78.763Y-80.32
X78.763Y-82.86
X78.763Y-85.4
X78.763Y-87.94
X78.763Y-90.48
X78.763Y-93.02
X78.763Y-95.56
X78.763Y-98.1
X78.763Y-100.64
X78.763Y-103.18
X78.763Y-105.72
X78.763Y-108.26
X78.763Y-110.8
X78.763Y-113.34
X78.763Y-115.88
X78.763Y-118.42
X94.018Y-77.78
X94.018Y-80.32
X94.018Y-82.86
X94.018Y-85.4
X94.018Y-87.94
X94.018Y-90.48
X94.018Y-93.02
X94.018Y-95.56
X94.018Y-98.1
X94.018Y-100.64
X94.018Y-103.18
X94.018Y-105.72
X94.018Y-108.26
X94.018Y-110.8
X94.018Y-113.34
X94.018Y-115.88
X94.018Y-118.42
X99.06Y-121.92
X101.6Y-121.92
X104.14Y-121.92
X106.68Y-121.92
X109.22Y-121.92
X111.76Y-121.92
X121.92Y-121.92
X124.46Y-121.92
X127.0Y-121.92
T0
M30
